<svg aria-roledescription="er" viewBox="0 0 469.83984375 298.3671875" style="max-width: 469.84px; background-color: white;" xmlns:xlink="http://www.w3.org/1999/xlink" xmlns="http://www.w3.org/2000/svg" width="100%" id="mermaid-0"><style>#mermaid-0{font-family:"trebuchet ms",verdana,arial,sans-serif;font-size:16px;fill:#000000;}#mermaid-0 .error-icon{fill:#552222;}#mermaid-0 .error-text{fill:#552222;stroke:#552222;}#mermaid-0 .edge-thickness-normal{stroke-width:2px;}#mermaid-0 .edge-thickness-thick{stroke-width:3.5px;}#mermaid-0 .edge-pattern-solid{stroke-dasharray:0;}#mermaid-0 .edge-pattern-dashed{stroke-dasharray:3;}#mermaid-0 .edge-pattern-dotted{stroke-dasharray:2;}#mermaid-0 .marker{fill:#000000;stroke:#000000;}#mermaid-0 .marker.cross{stroke:#000000;}#mermaid-0 svg{font-family:"trebuchet ms",verdana,arial,sans-serif;font-size:16px;}#mermaid-0 .entityBox{fill:#cde498;stroke:#13540c;}#mermaid-0 .attributeBoxOdd{fill:#ffffff;stroke:#13540c;}#mermaid-0 .attributeBoxEven{fill:#f2f2f2;stroke:#13540c;}#mermaid-0 .relationshipLabelBox{fill:hsl(78.1578947368, 58.4615384615%, 84.5098039216%);opacity:0.7;background-color:hsl(78.1578947368, 58.4615384615%, 84.5098039216%);}#mermaid-0 .relationshipLabelBox rect{opacity:0.5;}#mermaid-0 .relationshipLine{stroke:#000000;}#mermaid-0 .entityTitleText{text-anchor:middle;font-size:18px;fill:#000000;}#mermaid-0 :root{--mermaid-font-family:"trebuchet ms",verdana,arial,sans-serif;}</style><g/><defs><marker orient="auto" markerHeight="18" markerWidth="18" refY="9" refX="0" id="ONLY_ONE_START"><path d="M9,0 L9,18 M15,0 L15,18" fill="none" stroke="gray"/></marker></defs><defs><marker orient="auto" markerHeight="18" markerWidth="18" refY="9" refX="18" id="ONLY_ONE_END"><path d="M3,0 L3,18 M9,0 L9,18" fill="none" stroke="gray"/></marker></defs><defs><marker orient="auto" markerHeight="18" markerWidth="30" refY="9" refX="0" id="ZERO_OR_ONE_START"><circle r="6" cy="9" cx="21" fill="white" stroke="gray"/><path d="M9,0 L9,18" fill="none" stroke="gray"/></marker></defs><defs><marker orient="auto" markerHeight="18" markerWidth="30" refY="9" refX="30" id="ZERO_OR_ONE_END"><circle r="6" cy="9" cx="9" fill="white" stroke="gray"/><path d="M21,0 L21,18" fill="none" stroke="gray"/></marker></defs><defs><marker orient="auto" markerHeight="36" markerWidth="45" refY="18" refX="18" id="ONE_OR_MORE_START"><path d="M0,18 Q 18,0 36,18 Q 18,36 0,18 M42,9 L42,27" fill="none" stroke="gray"/></marker></defs><defs><marker orient="auto" markerHeight="36" markerWidth="45" refY="18" refX="27" id="ONE_OR_MORE_END"><path d="M3,9 L3,27 M9,18 Q27,0 45,18 Q27,36 9,18" fill="none" stroke="gray"/></marker></defs><defs><marker orient="auto" markerHeight="36" markerWidth="57" refY="18" refX="18" id="ZERO_OR_MORE_START"><circle r="6" cy="18" cx="48" fill="white" stroke="gray"/><path d="M0,18 Q18,0 36,18 Q18,36 0,18" fill="none" stroke="gray"/></marker></defs><defs><marker orient="auto" markerHeight="36" markerWidth="57" refY="18" refX="39" id="ZERO_OR_MORE_END"><circle r="6" cy="18" cx="9" fill="white" stroke="gray"/><path d="M21,18 Q39,0 57,18 Q39,36 21,18" fill="none" stroke="gray"/></marker></defs><path style="stroke: gray; fill: none;" marker-start="url(#ZERO_OR_MORE_START)" marker-end="url(#ONLY_ONE_END)" d="M81.078125,88.18359375L81.078125,96.51692708333333C81.078125,104.85026041666667,81.078125,121.51692708333333,85.45985592064274,138.18359375C89.84158684128549,154.85026041666666,98.60504868257097,171.51692708333334,102.98677960321373,179.85026041666666L107.36851052385647,188.18359375" class="er relationshipLine"/><path style="stroke: gray; fill: none;" marker-start="url(#ZERO_OR_MORE_START)" marker-end="url(#ONLY_ONE_END)" d="M360.5973532218964,77.1376953125L366.64688289324704,87.31201171875C372.69641256459755,97.486328125,384.7954719072988,117.8349609375,390.8450015786494,138.18359375C396.89453125,158.5322265625,396.89453125,178.880859375,396.89453125,189.05517578125L396.89453125,199.2294921875" class="er relationshipLine"/><path style="stroke: gray; fill: none;" marker-start="url(#ZERO_OR_MORE_START)" marker-end="url(#ONLY_ONE_END)" d="M316.67231507120255,77.1376953125L303.32979380933546,87.31201171875C289.98727254746836,97.486328125,263.3022300237342,117.8349609375,240.71083329202915,136.34261067708334C218.1194365603241,154.85026041666666,199.6216856206482,171.51692708333334,190.3728101508103,179.85026041666666L181.12393468097233,188.18359375" class="er relationshipLine"/><g transform="translate(63.46875,188.18359375 )" id="entity-habits-b6fb3c25-6dc7-4eb1-8504-6dabad3f571b"><rect height="90.18359375" width="135.21875" y="0" x="0" class="er entityBox"/><text style="dominant-baseline: middle; text-anchor: middle; font-size: 12px;" transform="translate(67.609375,12)" y="0" x="0" id="text-entity-habits-b6fb3c25-6dc7-4eb1-8504-6dabad3f571b" class="er entityLabel">habits</text><rect height="22.091796875" width="53.671875" y="24" x="0" class="er attributeBoxOdd"/><text style="dominant-baseline: middle; font-size: 10.2px;" transform="translate(5,35.0458984375)" y="0" x="0" id="text-entity-habits-b6fb3c25-6dc7-4eb1-8504-6dabad3f571b-attr-1-type" class="er entityLabel">String</text><rect height="22.091796875" width="59.984375" y="24" x="53.671875" class="er attributeBoxOdd"/><text style="dominant-baseline: middle; font-size: 10.2px;" transform="translate(58.671875,35.0458984375)" y="0" x="0" id="text-entity-habits-b6fb3c25-6dc7-4eb1-8504-6dabad3f571b-attr-1-name" class="er entityLabel">id</text><rect height="22.091796875" width="21.5625" y="24" x="113.65625" class="er attributeBoxOdd"/><text style="dominant-baseline: middle; font-size: 10.2px;" transform="translate(118.65625,35.0458984375)" y="0" x="0" id="text-entity-habits-b6fb3c25-6dc7-4eb1-8504-6dabad3f571b-attr-1-key" class="er entityLabel">PK</text><rect height="22.091796875" width="53.671875" y="46.091796875" x="0" class="er attributeBoxEven"/><text style="dominant-baseline: middle; font-size: 10.2px;" transform="translate(5,57.1376953125)" y="0" x="0" id="text-entity-habits-b6fb3c25-6dc7-4eb1-8504-6dabad3f571b-attr-2-type" class="er entityLabel">String</text><rect height="22.091796875" width="59.984375" y="46.091796875" x="53.671875" class="er attributeBoxEven"/><text style="dominant-baseline: middle; font-size: 10.2px;" transform="translate(58.671875,57.1376953125)" y="0" x="0" id="text-entity-habits-b6fb3c25-6dc7-4eb1-8504-6dabad3f571b-attr-2-name" class="er entityLabel">title</text><rect height="22.091796875" width="21.5625" y="46.091796875" x="113.65625" class="er attributeBoxEven"/><text style="dominant-baseline: middle; font-size: 10.2px;" transform="translate(118.65625,57.1376953125)" y="0" x="0" id="text-entity-habits-b6fb3c25-6dc7-4eb1-8504-6dabad3f571b-attr-2-key" class="er entityLabel"/><rect height="22" width="53.671875" y="68.18359375" x="0" class="er attributeBoxOdd"/><text style="dominant-baseline: middle; font-size: 10.2px;" transform="translate(5,79.18359375)" y="0" x="0" id="text-entity-habits-b6fb3c25-6dc7-4eb1-8504-6dabad3f571b-attr-3-type" class="er entityLabel">DateTime</text><rect height="22" width="59.984375" y="68.18359375" x="53.671875" class="er attributeBoxOdd"/><text style="dominant-baseline: middle; font-size: 10.2px;" transform="translate(58.671875,79.18359375)" y="0" x="0" id="text-entity-habits-b6fb3c25-6dc7-4eb1-8504-6dabad3f571b-attr-3-name" class="er entityLabel">created_at</text><rect height="22" width="21.5625" y="68.18359375" x="113.65625" class="er attributeBoxOdd"/><text style="dominant-baseline: middle; font-size: 10.2px;" transform="translate(118.65625,79.18359375)" y="0" x="0" id="text-entity-habits-b6fb3c25-6dc7-4eb1-8504-6dabad3f571b-attr-3-key" class="er entityLabel"/></g><g transform="translate(20,20 )" id="entity-habitweekdays-14d95692-4288-4b59-871d-ff5c7136a14c"><rect height="68.18359375" width="122.15625" y="0" x="0" class="er entityBox"/><text style="dominant-baseline: middle; text-anchor: middle; font-size: 12px;" transform="translate(61.078125,12)" y="0" x="0" id="text-entity-habitweekdays-14d95692-4288-4b59-871d-ff5c7136a14c" class="er entityLabel">habit_week_days</text><rect height="22.091796875" width="39.453125" y="24" x="0" class="er attributeBoxOdd"/><text style="dominant-baseline: middle; font-size: 10.2px;" transform="translate(5,35.0458984375)" y="0" x="0" id="text-entity-habitweekdays-14d95692-4288-4b59-871d-ff5c7136a14c-attr-1-type" class="er entityLabel">String</text><rect height="22.091796875" width="58.21875" y="24" x="39.453125" class="er attributeBoxOdd"/><text style="dominant-baseline: middle; font-size: 10.2px;" transform="translate(44.453125,35.0458984375)" y="0" x="0" id="text-entity-habitweekdays-14d95692-4288-4b59-871d-ff5c7136a14c-attr-1-name" class="er entityLabel">id</text><rect height="22.091796875" width="24.484375" y="24" x="97.671875" class="er attributeBoxOdd"/><text style="dominant-baseline: middle; font-size: 10.2px;" transform="translate(102.671875,35.0458984375)" y="0" x="0" id="text-entity-habitweekdays-14d95692-4288-4b59-871d-ff5c7136a14c-attr-1-key" class="er entityLabel">PK</text><rect height="22.091796875" width="39.453125" y="46.091796875" x="0" class="er attributeBoxEven"/><text style="dominant-baseline: middle; font-size: 10.2px;" transform="translate(5,57.1376953125)" y="0" x="0" id="text-entity-habitweekdays-14d95692-4288-4b59-871d-ff5c7136a14c-attr-2-type" class="er entityLabel">Int</text><rect height="22.091796875" width="58.21875" y="46.091796875" x="39.453125" class="er attributeBoxEven"/><text style="dominant-baseline: middle; font-size: 10.2px;" transform="translate(44.453125,57.1376953125)" y="0" x="0" id="text-entity-habitweekdays-14d95692-4288-4b59-871d-ff5c7136a14c-attr-2-name" class="er entityLabel">week_day</text><rect height="22.091796875" width="24.484375" y="46.091796875" x="97.671875" class="er attributeBoxEven"/><text style="dominant-baseline: middle; font-size: 10.2px;" transform="translate(102.671875,57.1376953125)" y="0" x="0" id="text-entity-habitweekdays-14d95692-4288-4b59-871d-ff5c7136a14c-attr-2-key" class="er entityLabel"/></g><g transform="translate(343.94921875,199.2294921875 )" id="entity-days-6fb94c2b-4a59-4200-9bbc-cd64e8564a1f"><rect height="68.091796875" width="105.890625" y="0" x="0" class="er entityBox"/><text style="dominant-baseline: middle; text-anchor: middle; font-size: 12px;" transform="translate(52.9453125,12)" y="0" x="0" id="text-entity-days-6fb94c2b-4a59-4200-9bbc-cd64e8564a1f" class="er entityLabel">days</text><rect height="22.091796875" width="53.671875" y="24" x="0" class="er attributeBoxOdd"/><text style="dominant-baseline: middle; font-size: 10.2px;" transform="translate(5,35.0458984375)" y="0" x="0" id="text-entity-days-6fb94c2b-4a59-4200-9bbc-cd64e8564a1f-attr-1-type" class="er entityLabel">String</text><rect height="22.091796875" width="30.65625" y="24" x="53.671875" class="er attributeBoxOdd"/><text style="dominant-baseline: middle; font-size: 10.2px;" transform="translate(58.671875,35.0458984375)" y="0" x="0" id="text-entity-days-6fb94c2b-4a59-4200-9bbc-cd64e8564a1f-attr-1-name" class="er entityLabel">id</text><rect height="22.091796875" width="21.5625" y="24" x="84.328125" class="er attributeBoxOdd"/><text style="dominant-baseline: middle; font-size: 10.2px;" transform="translate(89.328125,35.0458984375)" y="0" x="0" id="text-entity-days-6fb94c2b-4a59-4200-9bbc-cd64e8564a1f-attr-1-key" class="er entityLabel">PK</text><rect height="22" width="53.671875" y="46.091796875" x="0" class="er attributeBoxEven"/><text style="dominant-baseline: middle; font-size: 10.2px;" transform="translate(5,57.091796875)" y="0" x="0" id="text-entity-days-6fb94c2b-4a59-4200-9bbc-cd64e8564a1f-attr-2-type" class="er entityLabel">DateTime</text><rect height="22" width="30.65625" y="46.091796875" x="53.671875" class="er attributeBoxEven"/><text style="dominant-baseline: middle; font-size: 10.2px;" transform="translate(58.671875,57.091796875)" y="0" x="0" id="text-entity-days-6fb94c2b-4a59-4200-9bbc-cd64e8564a1f-attr-2-name" class="er entityLabel">date</text><rect height="22" width="21.5625" y="46.091796875" x="84.328125" class="er attributeBoxEven"/><text style="dominant-baseline: middle; font-size: 10.2px;" transform="translate(89.328125,57.091796875)" y="0" x="0" id="text-entity-days-6fb94c2b-4a59-4200-9bbc-cd64e8564a1f-attr-2-key" class="er entityLabel"/></g><g transform="translate(296.89453125,31.0458984375 )" id="entity-dayhabits-f4d05089-e547-45c3-b099-a73d760f9655"><rect height="46.091796875" width="100" y="0" x="0" class="er entityBox"/><text style="dominant-baseline: middle; text-anchor: middle; font-size: 12px;" transform="translate(50,12)" y="0" x="0" id="text-entity-dayhabits-f4d05089-e547-45c3-b099-a73d760f9655" class="er entityLabel">day_habits</text><rect height="22.091796875" width="44.302083333333336" y="24" x="0" class="er attributeBoxOdd"/><text style="dominant-baseline: middle; font-size: 10.2px;" transform="translate(5,35.0458984375)" y="0" x="0" id="text-entity-dayhabits-f4d05089-e547-45c3-b099-a73d760f9655-attr-1-type" class="er entityLabel">String</text><rect height="22.091796875" width="26.364583333333332" y="24" x="44.302083333333336" class="er attributeBoxOdd"/><text style="dominant-baseline: middle; font-size: 10.2px;" transform="translate(49.302083333333336,35.0458984375)" y="0" x="0" id="text-entity-dayhabits-f4d05089-e547-45c3-b099-a73d760f9655-attr-1-name" class="er entityLabel">id</text><rect height="22.091796875" width="29.333333333333332" y="24" x="70.66666666666667" class="er attributeBoxOdd"/><text style="dominant-baseline: middle; font-size: 10.2px;" transform="translate(75.66666666666667,35.0458984375)" y="0" x="0" id="text-entity-dayhabits-f4d05089-e547-45c3-b099-a73d760f9655-attr-1-key" class="er entityLabel">PK</text></g><rect height="14" width="27.734375" y="133.2885284423828" x="72.16905975341797" class="er relationshipLabelBox"/><text style="text-anchor: middle; dominant-baseline: middle; font-size: 12px;" y="140.2885284423828" x="86.03624725341797" id="rel1" class="er relationshipLabel">habit</text><rect height="14" width="18.921875" y="127.97573852539062" x="380.3813171386719" class="er relationshipLabelBox"/><text style="text-anchor: middle; dominant-baseline: middle; font-size: 12px;" y="134.97573852539062" x="389.8422546386719" id="rel2" class="er relationshipLabel">day</text><rect height="14" width="27.734375" y="123.87838745117188" x="233.56430053710938" class="er relationshipLabelBox"/><text style="text-anchor: middle; dominant-baseline: middle; font-size: 12px;" y="130.87838745117188" x="247.43148803710938" id="rel3" class="er relationshipLabel">habit</text></svg>